<svg width="24" height="24" viewBox="0 0 24 24" fill="none" xmlns="http://www.w3.org/2000/svg">
<path fill-rule="evenodd" clip-rule="evenodd" d="M12.51 8.796V10.493C12.8654 9.95168 13.3552 9.5119 13.9316 9.21671C14.5079 8.92152 15.1511 8.78103 15.798 8.809C19.253 8.809 20 10.969 20 13.779V19.5H16.8V14.428C16.8 13.218 16.556 11.662 14.672 11.662C12.845 11.662 12.533 12.979 12.533 14.338V19.5H9.343V8.796H12.51ZM7.2 6.106C7.19961 6.423 7.10564 6.73284 6.92988 6.99665C6.75412 7.26047 6.50439 7.46653 6.212 7.589C5.91973 7.71048 5.59792 7.74226 5.28753 7.68029C4.97715 7.61832 4.69221 7.4654 4.469 7.241C4.24537 7.01646 4.09311 6.73081 4.03139 6.41997C3.96967 6.10913 4.00123 5.78698 4.12211 5.49403C4.24299 5.20108 4.44779 4.95041 4.71075 4.77354C4.97371 4.59667 5.2831 4.5015 5.6 4.5C5.81062 4.5 6.01917 4.54158 6.21368 4.62236C6.4082 4.70315 6.58485 4.82154 6.7335 4.97075C6.88215 5.11996 6.99988 5.29705 7.07993 5.49186C7.15999 5.68668 7.20079 5.89538 7.2 6.106Z" fill="black"/>
<path d="M7.2 8.809H4V19.5H7.2V8.809Z" fill="black"/>
</svg>
