<svg width="124" height="124" viewBox="0 0 124 124" fill="none" xmlns="http://www.w3.org/2000/svg">
<path d="M57.4976 41.631C57.4976 40.3967 58.4981 39.3961 59.7324 39.3961H72.1502C73.3845 39.3961 74.3851 40.3967 74.3851 41.631C74.3851 42.8652 73.3845 43.8658 72.1502 43.8658H59.7324C58.4981 43.8658 57.4976 42.8652 57.4976 41.631ZM74.38 33.8821C74.3019 35.0456 73.3334 35.9651 72.1502 35.9651H59.7324C58.5492 35.9651 57.5808 35.0456 57.5026 33.8821C57.5808 32.7187 58.5492 31.7992 59.7324 31.7992H72.1502C73.3334 31.7992 74.3019 32.7187 74.38 33.8821ZM57.4976 26.4372C57.4976 25.2029 58.4981 24.2023 59.7324 24.2023H72.1502C73.3845 24.2023 74.3851 25.2029 74.3851 26.4372C74.3851 27.6715 73.3845 28.6721 72.1502 28.6721H59.7324C58.4981 28.6721 57.4976 27.6715 57.4976 26.4372ZM57.4976 18.5364C57.4976 17.3021 58.4981 16.3015 59.7324 16.3015H72.1502C73.3845 16.3015 74.3851 17.3021 74.3851 18.5364C74.3851 19.7707 73.3845 20.7713 72.1502 20.7713H59.7324C58.4981 20.7713 57.4976 19.7707 57.4976 18.5364ZM57.4976 10.6356C57.4976 9.40136 58.4981 8.40077 59.7324 8.40077H72.1502C73.3845 8.40077 74.3851 9.40136 74.3851 10.6356C74.3851 11.8699 73.3845 12.8705 72.1502 12.8705H59.7324C58.4981 12.8705 57.4976 11.8699 57.4976 10.6356ZM57.4976 2.73488C57.4976 1.50059 58.4981 0.5 59.7324 0.5H72.1502C73.3845 0.5 74.3851 1.50059 74.3851 2.73488C74.3851 3.96917 73.3845 4.96976 72.1502 4.96976H59.7324C58.4981 4.96976 57.4976 3.96917 57.4976 2.73488Z" stroke="url(#paint0_linear_45_257)"/>
<path d="M32.2273 59.2068C31.3648 58.3291 31.3755 56.9189 32.2512 56.0543L41.107 47.3117C41.9856 46.4444 43.4015 46.4551 44.2668 47.3357C45.1293 48.2134 45.1186 49.6236 44.2429 50.4882L35.3871 59.2308C34.5085 60.0981 33.0927 60.0874 32.2273 59.2068ZM38.8381 41.8186C39.5955 42.7005 39.5509 44.0306 38.7114 44.8593L29.8556 53.6019C29.0134 54.4334 27.6773 54.4579 26.8059 53.6827C26.0485 52.8008 26.0931 51.4707 26.9325 50.642L35.7883 41.8993C36.6306 41.0678 37.9667 41.0434 38.8381 41.8186ZM21.5899 48.3821C20.7274 47.5044 20.7381 46.0941 21.6138 45.2296L30.4696 36.487C31.3482 35.6196 32.764 35.6304 33.6294 36.5109C34.4919 37.3886 34.4812 38.7989 33.6055 39.6634L24.7497 48.406C23.8711 49.2734 22.4552 49.2627 21.5899 48.3821ZM16.0585 42.7532C15.1959 41.8755 15.2066 40.4652 16.0824 39.6007L24.9382 30.8581C25.8167 29.9907 27.2326 30.0015 28.0979 30.882C28.9604 31.7598 28.9497 33.17 28.074 34.0346L19.2182 42.7772C18.3396 43.6445 16.9238 43.6338 16.0585 42.7532ZM10.527 37.1243C9.66448 36.2466 9.67517 34.8364 10.5509 33.9718L19.4067 25.2292C20.2853 24.3619 21.7011 24.3726 22.5664 25.2532C23.429 26.1309 23.4183 27.5411 22.5425 28.4057L13.6868 37.1483C12.8082 38.0156 11.3923 38.0049 10.527 37.1243ZM4.99554 31.4955C4.13302 30.6178 4.14371 29.2075 5.01944 28.343L13.8752 19.6004C14.7538 18.733 16.1697 18.7437 17.035 19.6243C17.8975 20.502 17.8868 21.9123 17.0111 22.7768L8.1553 31.5194C7.27672 32.3868 5.86087 32.376 4.99554 31.4955Z" stroke="url(#paint1_linear_45_257)"/>
<path d="M25.7702 89.4472C24.5393 89.4472 23.5416 88.4494 23.5416 87.2186V74.7471C23.5416 73.5163 24.5393 72.5185 25.7702 72.5185C27.001 72.5185 27.9988 73.5163 27.9988 74.7471V87.2186C27.9988 88.4494 27.001 89.4472 25.7702 89.4472ZM18.0391 89.4421C16.879 89.3642 15.9621 88.3985 15.9621 87.2186V74.7471C15.9621 73.5673 16.879 72.6015 18.0391 72.5236C19.1992 72.6015 20.1161 73.5673 20.1161 74.7471V87.2186C20.1161 88.3985 19.1992 89.3642 18.0391 89.4421ZM10.6112 89.4472C9.38042 89.4472 8.38264 88.4494 8.38264 87.2186V74.7471C8.38264 73.5163 9.38042 72.5185 10.6112 72.5185C11.8421 72.5185 12.8399 73.5163 12.8399 74.7471V87.2186C12.8399 88.4494 11.8421 89.4472 10.6112 89.4472ZM2.72861 89.4472C1.49778 89.4472 0.5 88.4494 0.5 87.2186V74.7471C0.5 73.5163 1.49778 72.5185 2.72861 72.5185C3.95943 72.5185 4.95721 73.5163 4.95721 74.7471V87.2186C4.95721 88.4494 3.95943 89.4472 2.72861 89.4472Z" stroke="url(#paint2_linear_45_257)"/>
<path d="M121.271 89.4472C120.041 89.4472 119.043 88.4494 119.043 87.2186V74.7471C119.043 73.5163 120.041 72.5185 121.271 72.5185C122.502 72.5185 123.5 73.5163 123.5 74.7471V87.2186C123.5 88.4494 122.502 89.4472 121.271 89.4472ZM113.692 89.4472C112.461 89.4472 111.463 88.4494 111.463 87.2186V74.7471C111.463 73.5163 112.461 72.5185 113.692 72.5185C114.923 72.5185 115.921 73.5163 115.921 74.7471V87.2186C115.921 88.4494 114.923 89.4472 113.692 89.4472ZM105.809 89.4472C104.578 89.4472 103.581 88.4494 103.581 87.2186V74.7471C103.581 73.5163 104.578 72.5185 105.809 72.5185C107.04 72.5185 108.038 73.5163 108.038 74.7471V87.2186C108.038 88.4494 107.04 89.4472 105.809 89.4472Z" stroke="url(#paint3_linear_45_257)"/>
<path d="M42.4393 116.299C41.5721 117.177 40.1563 117.185 39.2795 116.316L30.4419 107.555C29.568 106.688 29.5602 105.278 30.4246 104.402C31.2918 103.524 32.7076 103.516 33.5844 104.385L42.422 113.146C43.2959 114.012 43.3036 115.423 42.4393 116.299ZM37.1093 121.7C36.2422 122.579 34.8263 122.586 33.9495 121.717L25.1119 112.956C24.238 112.09 24.2303 110.679 25.0946 109.804C25.9618 108.925 27.3776 108.917 28.2544 109.786L37.092 118.547C37.9659 119.414 37.9737 120.824 37.1093 121.7Z" stroke="url(#paint4_linear_45_257)"/>
<path d="M100.881 104.385C101.755 105.251 101.763 106.662 100.898 107.537L92.1561 116.395C91.2889 117.274 89.8731 117.281 88.9965 116.412C88.1226 115.546 88.115 114.135 88.9794 113.26L97.7214 104.402C98.5886 103.523 100.004 103.516 100.881 104.385Z" stroke="url(#paint5_linear_45_257)"/>
<path d="M87.7818 46.9947C88.6574 46.1244 90.0732 46.1302 90.9415 47.0078L99.6945 55.8543C100.56 56.729 100.554 58.1392 99.6814 59.0067C98.8058 59.8771 97.39 59.8712 96.5216 58.9936L87.7687 50.1471C86.9032 49.2724 86.9091 47.8622 87.7818 46.9947ZM105.167 53.5467C104.287 54.3117 102.951 54.2715 102.119 53.4302L93.3657 44.5838C92.5361 43.7453 92.5071 42.4148 93.2748 41.5419C94.1552 40.7769 95.4908 40.8171 96.3233 41.6584L105.076 50.5049C105.906 51.3433 105.935 52.6739 105.167 53.5467ZM98.5453 36.2959C99.4209 35.4255 100.837 35.4314 101.705 36.309L110.458 45.1555C111.323 46.0302 111.318 47.4404 110.445 48.3079C109.569 49.1782 108.153 49.1723 107.285 48.2948L98.5322 39.4483C97.6667 38.5736 97.6726 37.1634 98.5453 36.2959ZM104.142 30.7325C105.018 29.8622 106.434 29.8681 107.302 30.7456L116.055 39.5921C116.921 40.4668 116.915 41.8771 116.042 42.7445C115.166 43.6149 113.75 43.609 112.882 42.7314L104.129 33.8849C103.264 33.0102 103.27 31.6 104.142 30.7325ZM109.739 25.1691C110.615 24.2988 112.031 24.3047 112.899 25.1823L121.652 34.0287C122.518 34.9034 122.512 36.3137 121.639 37.1812C120.763 38.0515 119.348 38.0456 118.479 37.168L109.726 28.3216C108.861 27.4468 108.867 26.0366 109.739 25.1691Z" stroke="url(#paint6_linear_45_257)"/>
<defs>
<linearGradient id="paint0_linear_45_257" x1="65.9413" y1="0" x2="65.9413" y2="44.3658" gradientUnits="userSpaceOnUse">
<stop stop-color="#E1051A"/>
<stop offset="1" stop-color="#F3A169"/>
</linearGradient>
<linearGradient id="paint1_linear_45_257" x1="9.70168" y1="23.7023" x2="41.1527" y2="55.0812" gradientUnits="userSpaceOnUse">
<stop stop-color="#E1017A"/>
<stop offset="1" stop-color="#ED86B1"/>
</linearGradient>
<linearGradient id="paint2_linear_45_257" x1="28.4988" y1="81.1348" x2="2.70432e-07" y2="81.1348" gradientUnits="userSpaceOnUse">
<stop stop-color="#AA85B6"/>
<stop offset="1" stop-color="#642481"/>
</linearGradient>
<linearGradient id="paint3_linear_45_257" x1="124.606" y1="81.1348" x2="103.081" y2="81.1348" gradientUnits="userSpaceOnUse">
<stop stop-color="#FEEC04"/>
<stop offset="1" stop-color="#FEF173"/>
</linearGradient>
<linearGradient id="paint4_linear_45_257" x1="29.4083" y1="117.6" x2="38.374" y2="108.048" gradientUnits="userSpaceOnUse">
<stop stop-color="#009DDF"/>
<stop offset="1" stop-color="#8ED3F0"/>
</linearGradient>
<linearGradient id="paint5_linear_45_257" x1="96.8655" y1="112.434" x2="93.0664" y2="108.34" gradientUnits="userSpaceOnUse">
<stop stop-color="#2D953A"/>
<stop offset="1" stop-color="#51A74B"/>
</linearGradient>
<linearGradient id="paint6_linear_45_257" x1="117.482" y1="28.7162" x2="91.8019" y2="55.3984" gradientUnits="userSpaceOnUse">
<stop stop-color="#E6521D"/>
<stop offset="1" stop-color="#F5A603"/>
</linearGradient>
</defs>
</svg>
