<svg width="46" height="45" viewBox="0 0 46 45" fill="none" xmlns="http://www.w3.org/2000/svg">
<path d="M21.125 18.75H24.875C27.5263 18.75 28.8519 18.75 29.675 19.575C30.5 20.3981 30.5 21.7237 30.5 24.375V35.625C30.5 32.9737 30.5 31.6481 31.325 30.825C32.1463 30 33.4719 30 36.125 30C38.7781 30 40.1019 30 40.925 30.825C41.75 31.6481 41.75 32.9737 41.75 35.625V41.25H4.25C4.25 38.5988 4.25 37.2731 5.075 36.45C5.89625 35.625 7.22188 35.625 9.875 35.625C12.5281 35.625 13.8519 35.625 14.675 36.45C15.5 37.2713 15.5 38.5969 15.5 41.25V24.375C15.5 21.7237 15.5 20.3981 16.325 19.575C17.1462 18.75 18.4719 18.75 21.125 18.75ZM21.3988 5.66813C22.1112 4.3875 22.4675 3.75 23 3.75C23.5325 3.75 23.8888 4.3875 24.6012 5.66813L24.785 5.99812C24.9875 6.36187 25.0888 6.54187 25.2463 6.66188C25.4056 6.78187 25.6025 6.82687 25.9963 6.915L26.3525 6.9975C27.7362 7.31063 28.4281 7.46625 28.5931 7.995C28.7581 8.52375 28.2856 9.07687 27.3425 10.1794L27.0987 10.4644C26.8306 10.7775 26.6956 10.9331 26.6356 11.1281C26.5756 11.3231 26.5963 11.5313 26.6356 11.9494L26.6731 12.33C26.8156 13.8019 26.8869 14.5387 26.4575 14.865C26.0262 15.1931 25.3775 14.8931 24.0819 14.2969L23.7481 14.1431C23.3787 13.9744 23.195 13.8881 23 13.8881C22.805 13.8881 22.6213 13.9744 22.2519 14.1431L21.9181 14.2969C20.6225 14.8931 19.9738 15.1931 19.5425 14.865C19.1112 14.5387 19.1844 13.8019 19.3269 12.33L19.3644 11.9494C19.4037 11.5313 19.4244 11.3231 19.3644 11.1281C19.3044 10.9331 19.1694 10.7775 18.9012 10.4644L18.6575 10.1794C17.7144 9.07687 17.2419 8.52562 17.4069 7.995C17.5719 7.46625 18.2638 7.31063 19.6475 6.9975L20.0038 6.915C20.3975 6.82687 20.5944 6.78375 20.7537 6.66188C20.9112 6.54187 21.0125 6.36187 21.215 5.99812L21.3988 5.66813Z" fill="#C4C722"/>
</svg>
